<?xml version="1.0" encoding="UTF-8"?>
<svg xmlns="http://www.w3.org/2000/svg" xmlns:xlink="http://www.w3.org/1999/xlink" width="32px" height="36px" viewBox="0 0 32 36" version="1.1">
<g id="surface1">
<path style=" stroke:none;fill-rule:nonzero;fill:rgb(0%,0%,0%);fill-opacity:1;" d="M 12.871094 3.058594 C 11.839844 3.433594 16.316406 3.675781 19.605469 3.433594 C 21.78125 3.261719 21.863281 3.230469 20.632812 2.988281 C 18.929688 2.679688 13.902344 2.714844 12.871094 3.058594 Z M 12.871094 3.058594 "/>
<path style=" stroke:none;fill-rule:nonzero;fill:rgb(0%,0%,0%);fill-opacity:1;" d="M 13.902344 9.171875 C 12.554688 10.441406 11.484375 11.609375 11.484375 11.78125 C 11.484375 11.917969 12.199219 11.609375 13.070312 11.128906 C 14.136719 10.511719 14.8125 10.304688 15.089844 10.546875 C 15.5625 10.957031 16.078125 13.773438 16.476562 18.207031 L 16.792969 21.46875 L 17.070312 17.105469 C 17.226562 14.703125 17.585938 12.160156 17.820312 11.472656 C 18.257812 10.339844 18.414062 10.238281 19.484375 10.441406 C 20.59375 10.613281 20.632812 10.582031 20.160156 10.03125 C 19.207031 8.929688 16.871094 6.871094 16.59375 6.871094 C 16.4375 6.871094 15.207031 7.902344 13.902344 9.171875 Z M 13.902344 9.171875 "/>
<path style=" stroke:none;fill-rule:nonzero;fill:rgb(0%,0%,0%);fill-opacity:1;" d="M 6.019531 25.078125 C 5.742188 25.488281 5.703125 25.761719 5.941406 25.761719 C 6.136719 25.761719 6.335938 26.519531 6.335938 27.480469 C 6.335938 29.300781 7.167969 30.160156 8.316406 29.542969 C 8.792969 29.300781 8.792969 29.199219 8.199219 28.992188 C 7.289062 28.71875 7.207031 25.761719 8.117188 25.761719 C 8.4375 25.761719 8.710938 25.589844 8.710938 25.417969 C 8.710938 25.214844 8.4375 25.078125 8.117188 25.078125 C 7.800781 25.078125 7.523438 24.90625 7.523438 24.734375 C 7.523438 24.148438 6.535156 24.355469 6.019531 25.078125 Z M 6.019531 25.078125 "/>
<path style=" stroke:none;fill-rule:nonzero;fill:rgb(0%,0%,0%);fill-opacity:1;" d="M 10.535156 25.625 C 8.753906 27.136719 9.703125 29.542969 12.039062 29.542969 C 13.625 29.542969 14.375 28.855469 14.335938 27.445312 C 14.296875 25.453125 11.960938 24.355469 10.535156 25.625 Z M 13.070312 26.484375 C 13.78125 27.582031 13.226562 28.855469 12.117188 28.855469 C 11.605469 28.855469 11.050781 28.613281 10.929688 28.304688 C 10.097656 26.417969 12.039062 24.765625 13.070312 26.484375 Z M 13.070312 26.484375 "/>
<path style=" stroke:none;fill-rule:nonzero;fill:rgb(0%,0%,0%);fill-opacity:1;" d="M 15.839844 28.167969 C 15.839844 30.675781 15.960938 31.257812 16.4375 31.257812 C 16.832031 31.257812 17.03125 30.917969 17.03125 30.296875 C 17.03125 29.472656 17.1875 29.371094 18.296875 29.371094 C 19.246094 29.371094 19.722656 29.164062 20.160156 28.441406 C 21.265625 26.726562 19.523438 24.421875 17.820312 25.351562 C 17.347656 25.589844 17.03125 25.625 17.03125 25.417969 C 17.03125 25.25 16.753906 25.078125 16.4375 25.078125 C 15.960938 25.078125 15.839844 25.660156 15.839844 28.167969 Z M 19.328125 27.617188 C 19.246094 28.511719 19.050781 28.683594 18.21875 28.683594 C 17.425781 28.683594 17.1875 28.476562 17.109375 27.652344 C 16.988281 27 17.1875 26.519531 17.664062 26.210938 C 18.652344 25.589844 19.484375 26.277344 19.328125 27.617188 Z M 19.328125 27.617188 "/>
<path style=" stroke:none;fill-rule:nonzero;fill:rgb(0%,0%,0%);fill-opacity:1;" d="M 22.457031 25.695312 C 21.703125 26.417969 21.585938 27.894531 22.179688 28.890625 C 22.734375 29.75 24.988281 29.78125 25.863281 28.921875 C 26.773438 28.066406 26.691406 26.585938 25.742188 25.761719 C 24.753906 24.90625 23.289062 24.871094 22.457031 25.695312 Z M 25.1875 26.585938 C 25.542969 27.894531 25.226562 28.683594 24.277344 28.785156 C 23.128906 28.921875 22.457031 27.824219 22.96875 26.65625 C 23.484375 25.488281 24.832031 25.453125 25.1875 26.585938 Z M 25.1875 26.585938 "/>
</g>
</svg>
