<?xml version="1.0" standalone="no"?>
<!DOCTYPE svg PUBLIC "-//W3C//DTD SVG 20010904//EN"
 "http://www.w3.org/TR/2001/REC-SVG-20010904/DTD/svg10.dtd">
<svg version="1.0" xmlns="http://www.w3.org/2000/svg"
 width="512.000000pt" height="512.000000pt" viewBox="0 0 512.000000 512.000000"
 preserveAspectRatio="xMidYMid meet">

<g transform="translate(0.000000,512.000000) scale(0.100000,-0.100000)"
fill="#000000" stroke="none">
<path d="M2350 4650 c-747 -58 -1413 -516 -1736 -1195 -139 -293 -198 -561
-198 -895 0 -209 14 -329 60 -511 168 -674 683 -1237 1337 -1465 241 -83 434
-116 692 -116 348 -1 642 69 947 224 616 312 1044 915 1133 1593 19 149 19
401 0 550 -78 590 -412 1126 -915 1467 -377 255 -862 383 -1320 348z m514
-249 c775 -157 1348 -744 1492 -1526 26 -142 26 -488 0 -630 -113 -614 -490
-1113 -1041 -1376 -126 -61 -283 -113 -433 -145 -161 -35 -463 -44 -632 -20
-626 91 -1152 472 -1425 1032 -308 631 -237 1387 184 1950 290 389 729 651
1221 728 146 23 491 16 634 -13z"/>
<path d="M2223 3468 c-233 -232 -233 -233 -233 -276 0 -54 12 -77 50 -97 66
-34 82 -26 227 117 l133 132 0 -932 0 -932 33 -36 c25 -28 41 -36 70 -37 41
-1 85 25 104 64 10 19 13 233 13 942 l0 919 135 -126 c112 -105 139 -126 165
-126 76 0 132 68 110 134 -6 21 -89 110 -238 259 l-228 227 -54 0 -54 0 -233
-232z"/>
</g>
</svg>
